<?xml version="1.0" encoding="UTF-8" standalone="no"?>
<!-- Created with Inkscape (http://www.inkscape.org/) -->

<svg
   version="1.1"
   id="svg1"
   width="5333.3335"
   height="5333.3335"
   viewBox="0 0 5333.3335 5333.3335"
   sodipodi:docname="atom.eps"
   xmlns:inkscape="http://www.inkscape.org/namespaces/inkscape"
   xmlns:sodipodi="http://sodipodi.sourceforge.net/DTD/sodipodi-0.dtd"
   xmlns="http://www.w3.org/2000/svg"
   xmlns:svg="http://www.w3.org/2000/svg">
  <defs
     id="defs1" />
  <sodipodi:namedview
     id="namedview1"
     pagecolor="#ffffff"
     bordercolor="#000000"
     borderopacity="0.25"
     inkscape:showpageshadow="2"
     inkscape:pageopacity="0.0"
     inkscape:pagecheckerboard="0"
     inkscape:deskcolor="#d1d1d1">
    <inkscape:page
       x="0"
       y="0"
       inkscape:label="1"
       id="page1"
       width="5333.3335"
       height="5333.3335"
       margin="0"
       bleed="0" />
  </sodipodi:namedview>
  <g
     id="g1"
     inkscape:groupmode="layer"
     inkscape:label="1">
    <g
       id="group-R5">
      <path
         id="path2"
         d="m 10460.2,29738.6 c 750.5,310.8 1610.8,-45.5 1921.7,-796 310.8,-750.5 -45.5,-1610.8 -796,-1921.7 -750.5,-310.9 -1610.85,45.5 -1921.7,796 -310.85,750.5 45.52,1610.8 796,1921.7"
         style="fill:#f8ee22;fill-opacity:1;fill-rule:nonzero;stroke:none"
         transform="matrix(0.13333333,0,0,-0.13333333,0,5333.3333)" />
      <path
         id="path3"
         d="m 25600,32035.6 c 0,-812.3 -658.5,-1470.8 -1470.8,-1470.8 -812.3,0 -1470.8,658.5 -1470.8,1470.8 0,812.3 658.5,1470.8 1470.8,1470.8 812,-0.7 1470.1,-658.8 1470.8,-1470.8"
         style="fill:#e72a31;fill-opacity:1;fill-rule:nonzero;stroke:none"
         transform="matrix(0.13333333,0,0,-0.13333333,0,5333.3333)" />
      <path
         id="path4"
         d="m 21990.4,19120 c 0.4,-812.3 -657.7,-1471.2 -1470,-1471.6 -812.3,-0.4 -1471.2,657.7 -1471.6,1470 -0.4,812.3 657.7,1471.2 1470,1471.6 0.4,0 0.8,0 1.2,0 811.5,-1.1 1469.1,-658.5 1470.4,-1470"
         style="fill:#31672c;fill-opacity:1;fill-rule:nonzero;stroke:none"
         transform="matrix(0.13333333,0,0,-0.13333333,0,5333.3333)" />
      <path
         id="path5"
         d="m 34685.2,22780 c 0.2,-812.3 -658.1,-1471 -1470.4,-1471.2 -812.3,-0.2 -1471,658.1 -1471.2,1470.4 -0.2,812.3 658.1,1471 1470.4,1471.2 0.1,0 0.3,0 0.4,0 811.8,-0.9 1469.7,-658.6 1470.8,-1470.4"
         style="fill:#f46e16;fill-opacity:1;fill-rule:nonzero;stroke:none"
         transform="matrix(0.13333333,0,0,-0.13333333,0,5333.3333)" />
      <path
         id="path6"
         d="m 31276.4,10110.4 c 0,-812.3 -658.5,-1470.8 -1470.8,-1470.8 -812.3,0 -1470.8,658.5 -1470.8,1470.8 0,812.3 658.5,1470.8 1470.8,1470.8 812,-0.7 1470.1,-658.8 1470.8,-1470.8"
         style="fill:#67423a;fill-opacity:1;fill-rule:nonzero;stroke:none"
         transform="matrix(0.13333333,0,0,-0.13333333,0,5333.3333)" />
      <path
         id="path7"
         d="m 18680,6520 c 0,-812.3 -658.5,-1470.8 -1470.8,-1470.8 -812.3,0 -1470.8,658.5 -1470.8,1470.8 0,812.3 658.5,1470.8 1470.8,1470.8 811.9,-0.9 1469.9,-658.9 1470.8,-1470.8"
         style="fill:#2b3893;fill-opacity:1;fill-rule:nonzero;stroke:none"
         transform="matrix(0.13333333,0,0,-0.13333333,0,5333.3333)" />
      <path
         id="path8"
         d="m 9856.4,16040 c 0.22,-812.3 -658.1,-1471 -1470.4,-1471.2 -812.3,-0.2 -1470.98,658.1 -1471.2,1470.4 -0.22,812.3 658.1,1471 1470.4,1471.2 0.13,0 0.27,0 0.4,0 811.78,-0.9 1469.7,-658.6 1470.8,-1470.4"
         style="fill:#6dc8f2;fill-opacity:1;fill-rule:nonzero;stroke:none"
         transform="matrix(0.13333333,0,0,-0.13333333,0,5333.3333)" />
      <path
         id="path9"
         d="m 8871.6,17875.2 c -353.46,1.2 -639.03,288.7 -637.83,642.2 0.56,165.2 64.99,323.8 179.83,442.6 488.8,501.6 1028.8,1012.8 1604,1520 1315.2,1147.1 2704.9,2206 4160,3169.6 834,556.4 1707.6,1098.8 2597.2,1612.4 908,524.4 1835.2,1019.6 2755.2,1472.4 1675.2,824.8 3323.6,1508.8 4899.6,2033.2 2312.4,770.4 4400,1170.4 6042.8,1156.8 2348.4,-19.6 3337.2,-882.8 3753.2,-1603.6 496.8,-860.4 472,-1944.4 -73.6,-3222 -139,-325.1 -515.1,-476 -840.2,-337 -325.1,139 -476,515.1 -337,840.2 260.4,609.6 496.8,1465.2 142.4,2080 -451.2,782 -1693.2,955.6 -2655.2,963.6 h -72.8 c -1491.2,0 -3409.6,-376.8 -5555.6,-1091.6 -1520,-506 -3115.2,-1168 -4738.4,-1966.8 -894.8,-440 -1796.8,-922.8 -2680,-1433.2 -865.6,-499.6 -1716,-1027.2 -2527.2,-1568.4 -1407.8,-932.1 -2752.5,-1956.1 -4025.2,-3065.6 -550.8,-484 -1066.4,-972.4 -1532.8,-1450.8 -120.37,-123.9 -285.68,-193.8 -458.4,-194"
         style="fill:#15273a;fill-opacity:1;fill-rule:nonzero;stroke:none"
         transform="matrix(0.13333333,0,0,-0.13333333,0,5333.3333)" />
      <path
         id="path10"
         d="m 9234.8,10074.8 h -82 c -2348.4,19.6 -3337.2,882.8 -3753.2,1603.6 -392,680 -651.2,1886 340,3780.4 161.71,314.3 547.6,438 861.89,276.3 314.31,-161.7 438,-547.6 276.29,-861.9 -1.37,-2.7 -2.77,-5.3 -4.18,-8 -400,-760 -784.8,-1820.8 -365.6,-2546.8 452,-781.6 1692,-955.2 2655.2,-963.2 1501.2,-14 3447.6,364.8 5628.4,1091.2 1520,506 3115.2,1168 4738.4,1966.8 894.8,440 1796.8,922.8 2680,1433.2 865.6,499.6 1715.6,1027.2 2526.8,1568.4 1407.9,931.9 2752.8,1955.9 4025.6,3065.2 667.6,584.1 1305.6,1201.3 1911.6,1849.2 234.1,264.8 638.5,289.8 903.4,55.7 264.8,-234.1 289.7,-638.6 55.7,-903.4 -6.9,-7.7 -13.9,-15.3 -21.1,-22.7 -635.1,-679.5 -1303.9,-1326.5 -2004,-1938.8 -1315.3,-1147 -2705,-2205.9 -4160,-3169.6 -833.6,-556.4 -1707.6,-1098.8 -2597.2,-1612.4 -908,-524.4 -1835.2,-1019.6 -2755.2,-1472.8 C 18420,12440 16771.6,11756.4 15196,11232 12920,10474.4 10862.8,10074.8 9234.8,10074.8"
         style="fill:#15273a;fill-opacity:1;fill-rule:nonzero;stroke:none"
         transform="matrix(0.13333333,0,0,-0.13333333,0,5333.3333)" />
      <path
         id="path11"
         d="m 26912.8,10543.2 c -50.1,0 -100,5.8 -148.8,17.2 -829.6,197.6 -1705.6,454 -2603.2,762.4 -1583.1,548.9 -3129.8,1197.6 -4630.8,1942.4 -920,452.8 -1847.2,948 -2755.2,1472.4 -930.4,537.2 -1842,1104.8 -2710.4,1687.6 -1414.1,943.5 -2765.8,1977.3 -4046.8,3094.8 C 8160,21153.2 6740,22780.8 5912,24226.4 4728,26293.6 4979.6,27594 5400,28320 c 470.8,815.2 1351.2,1326 2616.8,1520 349.49,53.1 675.87,-187.1 729,-536.6 53.13,-349.5 -187.12,-675.9 -536.6,-729 -862,-130.8 -1434,-431.2 -1700.8,-892.8 -456.4,-790.4 28,-1969.2 514.8,-2818.4 760,-1324.8 2086.8,-2840 3840,-4382.4 1239.5,-1080.5 2547.2,-2080 3915.2,-2992.4 844.4,-566.8 1731.6,-1120 2636.8,-1640 883.6,-510.4 1785.6,-992.4 2680,-1432.8 1452,-721 2948.3,-1348.9 4480,-1880 859.2,-295.2 1694.8,-540 2484.4,-727.6 344,-81.4 556.8,-426.2 475.4,-770.2 -68.3,-288.8 -326.2,-492.7 -623,-492.6 l 0.8,-2"
         style="fill:#15273a;fill-opacity:1;fill-rule:nonzero;stroke:none"
         transform="matrix(0.13333333,0,0,-0.13333333,0,5333.3333)" />
      <path
         id="path12"
         d="m 31109.6,10105.2 c -353.5,-0.1 -640.1,286.3 -640.2,639.8 -0.2,332.1 253.8,609.1 584.6,637.8 732,64.4 1684,280 2063.2,936 456.4,790.4 -28,1969.2 -514.8,2818.4 -760,1324.8 -2086.8,2840 -3840,4382.4 -1239.3,1080.7 -2547.1,2080.2 -3915.2,2992.4 -844.4,566.8 -1731.6,1120 -2636.4,1640 -884,510.4 -1786,992.4 -2680,1432.8 -1451.9,721 -2948.3,1349 -4480,1880 -940.5,326.6 -1899,598.7 -2870.8,815.2 -346.2,71.1 -569.3,409.4 -498.2,755.6 71.1,346.3 409.4,569.3 755.6,498.2 5.3,-1 10.6,-2.2 15.8,-3.4 1019.3,-227 2024.7,-512.4 3011.2,-854.8 1583.2,-548.8 3129.9,-1197.6 4630.8,-1942.4 920,-452.8 1847.2,-948 2755.6,-1472.4 929.6,-537.2 1840,-1104.8 2710,-1687.6 1413.9,-943.2 2765.6,-1976.4 4046.8,-3093.2 1858,-1634 3277.6,-3261.6 4105.6,-4707.2 1184.4,-2067.2 932.4,-3367.6 512.4,-4094.8 -525.2,-909.6 -1554.4,-1440 -3059.2,-1571.2 -18.8,-0.8 -38,-1.6 -56.8,-1.6"
         style="fill:#15273a;fill-opacity:1;fill-rule:nonzero;stroke:none"
         transform="matrix(0.13333333,0,0,-0.13333333,0,5333.3333)" />
      <path
         id="path13"
         d="m 15594.4,8627.6 c -284.6,0.1 -534.9,188 -614.4,461.2 -236,812 -443.2,1698.4 -615.6,2634.4 -309.9,1719.3 -504.6,3457.5 -582.8,5202.8 -50.4,1044.8 -65.2,2120 -44,3192.8 20,1026.4 72.8,2053.6 157.2,3052.8 137.4,1692.6 383.4,3374.6 736.4,5035.6 530.4,2452.8 1271.6,4515.2 2143.2,5964 1245.6,2068.8 2515.2,2484.8 3364,2468.8 954.8,-19.2 1840,-558 2626.4,-1602 213,-282.2 156.8,-683.6 -125.4,-896.6 -282.2,-213 -683.6,-156.8 -896.6,125.4 -539.2,714.8 -1087.6,1082.4 -1629.6,1093.2 h -24.4 c -912.8,0 -1708.4,-1002.8 -2217.6,-1848.4 -800,-1330 -1488,-3257.6 -1989.2,-5574.8 -341.2,-1607.4 -578.9,-3235 -711.6,-4872.8 -82,-972 -133.6,-1971.2 -153.2,-2970 -20.4,-1045.2 -6,-2090 43.2,-3106.4 75.1,-1688 263.1,-3369.1 562.8,-5032 164.8,-894.4 362,-1738.4 586,-2509.2 98.6,-339.4 -96.5,-694.5 -436,-793.2 v 0 c -58.1,-17.1 -118.3,-25.7 -178.8,-25.6"
         style="fill:#15273a;fill-opacity:1;fill-rule:nonzero;stroke:none"
         transform="matrix(0.13333333,0,0,-0.13333333,0,5333.3333)" />
      <path
         id="path14"
         d="m 19535.2,3360 h -48.4 c -978,19.6 -1880,584 -2682,1677.2 -209,285.1 -147.3,685.6 137.8,894.6 285.1,209 685.6,147.3 894.6,-137.8 380.4,-520 980,-1140.4 1674.8,-1154 922,-16.8 1728.4,994.8 2242,1848 800,1330 1488,3257.6 1989.2,5574.8 341.2,1607.5 578.8,3235.3 711.6,4873.2 82.4,971.6 133.6,1970.8 153.2,2970 20.4,1045.2 6,2090 -43.2,3106.4 -75.1,1688 -263.1,3369.1 -562.8,5032 -159.3,879.5 -364.5,1750 -614.8,2608 -100.3,339 93.2,695.1 432.2,795.4 339,100.3 695.1,-93.2 795.4,-432.2 v 0 c 262.7,-901.1 478.3,-1815.3 646,-2738.8 309.9,-1719.4 504.6,-3457.5 582.8,-5202.8 50.4,-1044.8 65.2,-2120 44,-3193.2 -20,-1026.8 -72.8,-2053.6 -157.2,-3052.4 C 25593,15135.8 25347,13453.8 24994,11792.8 24463.6,9340 23722.4,7277.6 22850.8,5828.8 21628.4,3797.6 20381.6,3360 19535.2,3360"
         style="fill:#15273a;fill-opacity:1;fill-rule:nonzero;stroke:none"
         transform="matrix(0.13333333,0,0,-0.13333333,0,5333.3333)" />
      <path
         id="path15"
         d="m 10223.2,27708.8 c -812.3,0 -1470.8,658.5 -1470.8,1470.8 0,812.3 658.5,1470.8 1470.8,1470.8 812.3,0 1470.8,-658.5 1470.8,-1470.8 v 0 c -0.9,-811.9 -658.9,-1469.9 -1470.8,-1470.8 z m 2740.8,1705.6 c -129.6,1513.7 -1461.8,2635.7 -2975.51,2506 -1209.28,-103.6 -2207.76,-987.4 -2457.29,-2175.2 -39.33,-186 -59.04,-375.5 -58.8,-565.6 0.73,-1519.2 1232.91,-2750.2 2752.1,-2749.5 1518.2,0.8 2748.8,1231.3 2749.5,2749.5 0,79.2 -3.3,157.5 -10,234.8"
         style="fill:#15273a;fill-opacity:1;fill-rule:nonzero;stroke:none"
         transform="matrix(0.13333333,0,0,-0.13333333,0,5333.3333)" />
      <path
         id="path16"
         d="m 23329.6,31365.2 c -812.3,-0.2 -1471,658.1 -1471.2,1470.4 -0.2,812.3 658.1,1471 1470.4,1471.2 812.3,0.2 1471,-658.1 1471.2,-1470.4 0,-0.3 0,-0.5 0,-0.8 -0.9,-811.7 -658.7,-1469.5 -1470.4,-1470.4 z m 0,4221.2 c -1519.1,-18.3 -2735.8,-1264.6 -2717.4,-2783.8 18,-1493.2 1224.1,-2699.4 2717.4,-2717.4 72.3,0 143.9,2.8 214.8,8.4 1514.6,115.7 2648.6,1437.4 2532.8,2952 -109.7,1435.5 -1307.9,2543.5 -2747.6,2540.8 v 0"
         style="fill:#15273a;fill-opacity:1;fill-rule:nonzero;stroke:none"
         transform="matrix(0.13333333,0,0,-0.13333333,0,5333.3333)" />
      <path
         id="path17"
         d="m 19720,18448.4 c -812.3,-0.2 -1471,658.1 -1471.2,1470.4 -0.2,812.3 658.1,1471 1470.4,1471.2 812.1,0.2 1470.8,-657.9 1471.2,-1470 -0.2,-812.2 -658.2,-1470.7 -1470.4,-1471.6 z m 0,4221.6 c -1519.2,0.2 -2751,-1231.2 -2751.2,-2750.4 -0.2,-1519.2 1231.2,-2751 2750.4,-2751.2 1519.2,-0.2 2751,1231.2 2751.2,2750.4 0,0.4 0,0.8 0,1.2 -2,1518.1 -1232.3,2748.2 -2750.4,2750"
         style="fill:#15273a;fill-opacity:1;fill-rule:nonzero;stroke:none"
         transform="matrix(0.13333333,0,0,-0.13333333,0,5333.3333)" />
      <path
         id="path18"
         d="m 32414.4,22109.2 c -812.3,0 -1470.8,658.5 -1470.8,1470.8 0,812.3 658.5,1470.8 1470.8,1470.8 812.3,0 1470.8,-658.5 1470.8,-1470.8 -0.9,-811.9 -658.9,-1469.9 -1470.8,-1470.8 z m 1912.8,3445.2 c -1092.5,1054.4 -2832.9,1023.5 -3887.3,-69 -1054.5,-1092.5 -1023.6,-2832.9 68.9,-3887.3 1092.5,-1054.4 2832.9,-1023.5 3887.3,69 495.6,513.4 772.1,1199.4 771.1,1912.9 -0.1,744.9 -303.4,1457.7 -840,1974.4"
         style="fill:#15273a;fill-opacity:1;fill-rule:nonzero;stroke:none"
         transform="matrix(0.13333333,0,0,-0.13333333,0,5333.3333)" />
      <path
         id="path19"
         d="m 29005.6,9440 c -812.3,0 -1470.8,658.5 -1470.8,1470.8 0,812.3 658.5,1470.8 1470.8,1470.8 812.3,0 1470.8,-658.5 1470.8,-1470.8 0,-0.1 0,-0.3 0,-0.4 -0.9,-811.9 -658.9,-1469.7 -1470.8,-1470.4 z m 2692,2037.6 c -313.5,1486.5 -1772.7,2437.5 -3259.2,2124 -1272.3,-268.3 -2183,-1390.9 -2183.2,-2691.2 0,-76 3.2,-151.2 9.2,-225.2 124.1,-1514.1 1452.2,-2641 2966.4,-2516.8 1514.1,124.1 2640.9,1452.2 2516.8,2966.4 -9.4,115.2 -26.1,229.7 -50,342.8"
         style="fill:#15273a;fill-opacity:1;fill-rule:nonzero;stroke:none"
         transform="matrix(0.13333333,0,0,-0.13333333,0,5333.3333)" />
      <path
         id="path20"
         d="m 14936.8,7320 c -0.2,812.3 658.1,1471 1470.4,1471.2 812.3,0.2 1471,-658.1 1471.2,-1470.4 0.2,-812.3 -658.1,-1471 -1470.4,-1471.2 -0.1,0 -0.3,0 -0.4,0 -811.8,0.9 -1469.7,658.6 -1470.8,1470.4 z m 1470.8,2750 c -559.2,0.3 -1105.1,-170.6 -1564.4,-489.6 -1247.9,-864.9 -1558.5,-2577.6 -693.6,-3825.6 864.9,-1247.9 2577.6,-1558.5 3825.6,-693.6 1247.9,864.9 1558.5,2577.6 693.6,3825.6 -513.9,741.5 -1359,1183.7 -2261.2,1183.2"
         style="fill:#15273a;fill-opacity:1;fill-rule:nonzero;stroke:none"
         transform="matrix(0.13333333,0,0,-0.13333333,0,5333.3333)" />
      <path
         id="path21"
         d="m 7585.6,15370.8 c -812.3,0 -1470.8,658.5 -1470.8,1470.8 0,812.3 658.5,1470.8 1470.8,1470.8 812.31,0 1470.8,-658.5 1470.8,-1470.8 0,-0.5 0,-1.1 0,-1.6 -1.77,-811.3 -659.49,-1468.3 -1470.8,-1469.2 z m 2185.6,3138.4 c -922.13,1206 -2647.3,1436.1 -3853.27,513.9 C 4711.96,18101 4481.87,16375.8 5404,15169.9 c 922.13,-1206 2647.3,-1436.1 3853.27,-514 680.28,520.2 1079.23,1327.7 1079.13,2184.1 1.1,603.5 -197.6,1190.5 -565.2,1669.2"
         style="fill:#15273a;fill-opacity:1;fill-rule:nonzero;stroke:none"
         transform="matrix(0.13333333,0,0,-0.13333333,0,5333.3333)" />
    </g>
  </g>
</svg>
